<svg xmlns="http://www.w3.org/2000/svg" xmlns:svg="http://www.w3.org/2000/svg" id="svg200" width="464.923" height="489.793" version="1.1" viewBox="0 0 123.011 129.591"><metadata id="metadata204"/><desc id="desc10">Created with the Front Panel Designer by the export of the file &apos;panel.fpd&apos;.</desc><defs id="defs22"><pattern id="revside-fill" width="1.5" height="1.5" x="1" y="1" patternUnits="userSpaceOnUse"><line style="stroke-width:.2;stroke:#000;stroke-dasharray:none" id="line12" x1="0" x2="1" y1="0" y2="1"/><line style="stroke-width:.2;stroke:#000;stroke-dasharray:none" id="line14" x1="0" x2="1" y1="1" y2="0"/></pattern><pattern id="revside-fill-silver" width="1.5" height="1.5" x="1" y="1" patternUnits="userSpaceOnUse"><line style="stroke-width:.2;stroke:#e0e0e0;stroke-dasharray:none" id="line17" x1="0" x2="1.5" y1="0" y2="1.5"/><line style="stroke-width:.2;stroke:#e0e0e0;stroke-dasharray:none" id="line19" x1="0" x2="1.5" y1="1.5" y2="0"/></pattern></defs><g style="opacity:1;stroke-linecap:round;stroke-linejoin:round;stroke-opacity:1" id="g198" fill-rule="evenodd" transform="matrix(1,0,0,-1,0.90197638,128.68898)"><path id="path24" fill="#ccc" stroke="#000" stroke-width=".1mm" d="m 0,126.9 a 1.6,1.6 0 0 0 1.6,1.6 v 0 h 118.72 a 1.6,1.6 0 0 0 1.6,-1.6 v 0 V 1.6 A 1.6,1.6 0 0 0 120.32,0 V 0 H 1.6 A 1.6,1.6 0 0 0 0,1.6 v 0 125.3" vector-effect="non-scaling-stroke"/><path id="path48" fill="#e0e0e0" stroke="#00f" stroke-width=".1mm" d="m 72.689,43.841 0.035,0.002 0.168,0.009 0.059,0.004 0.058,0.006 0.059,0.008 0.031,0.005 0.166,0.029 0.058,0.011 0.058,0.013 0.064,0.017 0.161,0.046 0.056,0.018 0.056,0.019 0.08,0.031 0.156,0.065 0.054,0.023 0.054,0.026 0.064,0.033 0.147,0.081 0.051,0.03 0.05,0.031 0.065,0.044 0.137,0.097 0.048,0.035 0.046,0.036 0.058,0.049 0.126,0.112 0.043,0.04 0.042,0.042 0.06,0.063 0.112,0.126 0.039,0.045 0.037,0.046 0.044,0.061 0.097,0.137 0.034,0.049 0.031,0.05 0.04,0.067 0.081,0.147 0.027,0.053 0.026,0.053 0.029,0.066 0.065,0.156 0.022,0.055 0.02,0.056 0.026,0.081 0.046,0.161 0.015,0.057 0.013,0.058 0.013,0.065 0.029,0.166 0.009,0.058 0.007,0.059 0.006,0.059 10e-4,0.031 0.009,0.168 0.003,0.06 V 72.63 l -10e-4,0.059 -0.002,0.035 -0.009,0.168 -0.004,0.059 -0.006,0.058 -0.008,0.059 -0.005,0.031 -0.029,0.166 -0.011,0.058 -0.013,0.058 -0.017,0.064 -0.046,0.161 -0.018,0.056 -0.019,0.056 -0.031,0.08 -0.065,0.156 -0.023,0.054 -0.026,0.054 -0.033,0.064 -0.081,0.147 -0.03,0.051 -0.031,0.05 -0.044,0.065 -0.097,0.137 -0.035,0.048 -0.036,0.046 -0.049,0.058 -0.112,0.126 -0.04,0.043 -0.042,0.042 -0.063,0.06 -0.126,0.112 -0.045,0.039 -0.046,0.037 -0.061,0.044 -0.137,0.097 -0.049,0.034 -0.05,0.031 -0.067,0.04 -0.147,0.081 -0.053,0.027 -0.053,0.026 -0.066,0.029 -0.156,0.065 -0.055,0.022 -0.056,0.02 -0.081,0.026 -0.161,0.046 -0.057,0.015 -0.058,0.013 -0.065,0.013 -0.166,0.029 -0.058,0.009 -0.059,0.007 -0.059,0.006 -0.031,10e-4 -0.168,0.009 -0.06,0.003 H 46.83 L 46.771,75.879 46.736,75.877 46.568,75.868 46.509,75.864 46.451,75.858 46.392,75.85 46.361,75.845 46.195,75.816 46.137,75.805 46.079,75.792 46.015,75.775 45.854,75.729 45.798,75.711 45.742,75.692 45.662,75.661 45.506,75.596 45.452,75.573 45.398,75.547 45.334,75.514 45.187,75.433 45.136,75.403 45.086,75.372 45.021,75.328 44.884,75.231 44.836,75.196 44.79,75.16 44.732,75.111 44.606,74.999 44.563,74.959 44.521,74.917 44.461,74.854 44.349,74.728 44.31,74.683 44.273,74.637 44.229,74.576 44.132,74.439 44.098,74.39 44.067,74.34 44.027,74.273 43.946,74.126 43.919,74.073 43.893,74.02 43.864,73.954 43.799,73.798 43.777,73.743 43.757,73.687 43.731,73.606 43.685,73.445 43.67,73.388 43.657,73.33 43.644,73.265 43.615,73.099 43.606,73.041 43.599,72.982 43.593,72.923 43.592,72.892 43.583,72.724 43.58,72.664 V 47.09 l 0.001,-0.059 0.002,-0.035 0.009,-0.168 0.004,-0.059 0.006,-0.058 0.008,-0.059 0.005,-0.031 0.029,-0.166 0.011,-0.058 0.013,-0.058 0.017,-0.064 0.046,-0.161 0.018,-0.056 0.019,-0.056 0.031,-0.08 0.065,-0.156 0.023,-0.054 0.026,-0.054 0.033,-0.064 0.081,-0.147 0.03,-0.051 0.031,-0.05 0.044,-0.065 0.097,-0.137 0.035,-0.048 0.036,-0.046 0.049,-0.058 0.112,-0.126 0.04,-0.043 0.042,-0.042 0.063,-0.06 0.126,-0.112 0.045,-0.039 0.046,-0.037 0.061,-0.044 0.137,-0.097 0.049,-0.034 0.05,-0.031 0.067,-0.04 0.147,-0.081 0.053,-0.027 0.053,-0.026 0.066,-0.029 0.156,-0.065 0.055,-0.022 0.056,-0.02 0.081,-0.026 0.161,-0.046 0.057,-0.015 0.058,-0.013 0.065,-0.013 0.166,-0.029 0.058,-0.009 0.059,-0.007 0.059,-0.006 0.031,-0.001 0.168,-0.009 0.06,-0.003 H 72.63 l 0.059,10e-4 M 45.33,47.09 a 1.5,1.5 0 0 1 1.5,-1.5 h 25.8 a 1.5,1.5 0 0 1 1.5,1.5 v 25.54 a 1.5,1.5 0 0 1 -1.5,1.5 h -25.8 a 1.5,1.5 0 0 1 -1.5,-1.5 V 47.09" vector-effect="non-scaling-stroke"/><path id="path50" fill="none" stroke="#00f" stroke-width=".1mm" d="m 72.689,43.841 0.035,0.002 0.168,0.009 0.059,0.004 0.058,0.006 0.059,0.008 0.031,0.005 0.166,0.029 0.058,0.011 0.058,0.013 0.064,0.017 0.161,0.046 0.056,0.018 0.056,0.019 0.08,0.031 0.156,0.065 0.054,0.023 0.054,0.026 0.064,0.033 0.147,0.081 0.051,0.03 0.05,0.031 0.065,0.044 0.137,0.097 0.048,0.035 0.046,0.036 0.058,0.049 0.126,0.112 0.043,0.04 0.042,0.042 0.06,0.063 0.112,0.126 0.039,0.045 0.037,0.046 0.044,0.061 0.097,0.137 0.034,0.049 0.031,0.05 0.04,0.067 0.081,0.147 0.027,0.053 0.026,0.053 0.029,0.066 0.065,0.156 0.022,0.055 0.02,0.056 0.026,0.081 0.046,0.161 0.015,0.057 0.013,0.058 0.013,0.065 0.029,0.166 0.009,0.058 0.007,0.059 0.006,0.059 10e-4,0.031 0.009,0.168 0.003,0.06 V 72.63 l -10e-4,0.059 -0.002,0.035 -0.009,0.168 -0.004,0.059 -0.006,0.058 -0.008,0.059 -0.005,0.031 -0.029,0.166 -0.011,0.058 -0.013,0.058 -0.017,0.064 -0.046,0.161 -0.018,0.056 -0.019,0.056 -0.031,0.08 -0.065,0.156 -0.023,0.054 -0.026,0.054 -0.033,0.064 -0.081,0.147 -0.03,0.051 -0.031,0.05 -0.044,0.065 -0.097,0.137 -0.035,0.048 -0.036,0.046 -0.049,0.058 -0.112,0.126 -0.04,0.043 -0.042,0.042 -0.063,0.06 -0.126,0.112 -0.045,0.039 -0.046,0.037 -0.061,0.044 -0.137,0.097 -0.049,0.034 -0.05,0.031 -0.067,0.04 -0.147,0.081 -0.053,0.027 -0.053,0.026 -0.066,0.029 -0.156,0.065 -0.055,0.022 -0.056,0.02 -0.081,0.026 -0.161,0.046 -0.057,0.015 -0.058,0.013 -0.065,0.013 -0.166,0.029 -0.058,0.009 -0.059,0.007 -0.059,0.006 -0.031,10e-4 -0.168,0.009 -0.06,0.003 H 46.83 L 46.771,75.879 46.736,75.877 46.568,75.868 46.509,75.864 46.451,75.858 46.392,75.85 46.361,75.845 46.195,75.816 46.137,75.805 46.079,75.792 46.015,75.775 45.854,75.729 45.798,75.711 45.742,75.692 45.662,75.661 45.506,75.596 45.452,75.573 45.398,75.547 45.334,75.514 45.187,75.433 45.136,75.403 45.086,75.372 45.021,75.328 44.884,75.231 44.836,75.196 44.79,75.16 44.732,75.111 44.606,74.999 44.563,74.959 44.521,74.917 44.461,74.854 44.349,74.728 44.31,74.683 44.273,74.637 44.229,74.576 44.132,74.439 44.098,74.39 44.067,74.34 44.027,74.273 43.946,74.126 43.919,74.073 43.893,74.02 43.864,73.954 43.799,73.798 43.777,73.743 43.757,73.687 43.731,73.606 43.685,73.445 43.67,73.388 43.657,73.33 43.644,73.265 43.615,73.099 43.606,73.041 43.599,72.982 43.593,72.923 43.592,72.892 43.583,72.724 43.58,72.664 V 47.09 l 0.001,-0.059 0.002,-0.035 0.009,-0.168 0.004,-0.059 0.006,-0.058 0.008,-0.059 0.005,-0.031 0.029,-0.166 0.011,-0.058 0.013,-0.058 0.017,-0.064 0.046,-0.161 0.018,-0.056 0.019,-0.056 0.031,-0.08 0.065,-0.156 0.023,-0.054 0.026,-0.054 0.033,-0.064 0.081,-0.147 0.03,-0.051 0.031,-0.05 0.044,-0.065 0.097,-0.137 0.035,-0.048 0.036,-0.046 0.049,-0.058 0.112,-0.126 0.04,-0.043 0.042,-0.042 0.063,-0.06 0.126,-0.112 0.045,-0.039 0.046,-0.037 0.061,-0.044 0.137,-0.097 0.049,-0.034 0.05,-0.031 0.067,-0.04 0.147,-0.081 0.053,-0.027 0.053,-0.026 0.066,-0.029 0.156,-0.065 0.055,-0.022 0.056,-0.02 0.081,-0.026 0.161,-0.046 0.057,-0.015 0.058,-0.013 0.065,-0.013 0.166,-0.029 0.058,-0.009 0.059,-0.007 0.059,-0.006 0.031,-0.001 0.168,-0.009 0.06,-0.003 H 72.63 l 0.059,10e-4" vector-effect="non-scaling-stroke"/><g id="g1076" style="mix-blend-mode:difference"><path id="path26" fill="#fff" stroke="#000" stroke-width=".1mm" d="m 4.669,3.983 a 2.95,2.95 0 0 1 0,-1.966 1,1 0 0 1 0.943,-0.667 h 3.676 a 1,1 0 0 1 0.943,0.667 2.95,2.95 0 0 1 0,1.966 A 1,1 0 0 1 9.288,4.65 H 5.612 A 1,1 0 0 1 4.669,3.983" vector-effect="non-scaling-stroke"/><path id="path28" fill="#fff" stroke="#000" stroke-width=".1mm" d="m 4.669,126.483 a 2.95,2.95 0 0 1 0,-1.966 1,1 0 0 1 0.943,-0.667 h 3.676 a 1,1 0 0 1 0.943,0.667 2.95,2.95 0 0 1 0,1.966 1,1 0 0 1 -0.943,0.667 H 5.612 a 1,1 0 0 1 -0.943,-0.667" vector-effect="non-scaling-stroke"/><path id="path30" fill="#fff" stroke="#000" stroke-width=".1mm" d="m 111.689,3.983 a 2.95,2.95 0 0 1 0,-1.966 1,1 0 0 1 0.943,-0.667 h 3.676 a 1,1 0 0 1 0.943,0.667 2.95,2.95 0 0 1 0,1.966 1,1 0 0 1 -0.943,0.667 h -3.676 a 1,1 0 0 1 -0.943,-0.667" vector-effect="non-scaling-stroke"/><path id="path32" fill="#fff" stroke="#000" stroke-width=".1mm" d="m 111.689,126.483 a 2.95,2.95 0 0 1 0,-1.966 1,1 0 0 1 0.943,-0.667 h 3.676 a 1,1 0 0 1 0.943,0.667 2.95,2.95 0 0 1 0,1.966 1,1 0 0 1 -0.943,0.667 h -3.676 a 1,1 0 0 1 -0.943,-0.667" vector-effect="non-scaling-stroke"/><path id="path34" fill="#fff" stroke="#000" stroke-width=".1mm" d="m 10.77,17.92 a 3.6,3.6 0 1 0 7.2,0 3.6,3.6 0 1 0 -7.2,0" vector-effect="non-scaling-stroke"/><path id="path36" fill="#fff" stroke="#000" stroke-width=".1mm" d="m 58.27,17.92 a 3.6,3.6 0 1 0 7.2,0 3.6,3.6 0 1 0 -7.2,0" vector-effect="non-scaling-stroke"/><path id="path38" fill="#fff" stroke="#000" stroke-width=".1mm" d="m 105.77,17.92 a 3.6,3.6 0 1 0 7.2,0 3.6,3.6 0 1 0 -7.2,0" vector-effect="non-scaling-stroke"/><path id="path40" fill="#fff" stroke="#000" stroke-width=".1mm" d="m 28.67,36.75 a 4.5,4.5 0 1 0 9,0 4.5,4.5 0 1 0 -9,0" vector-effect="non-scaling-stroke"/><path id="path42" fill="#fff" stroke="#000" stroke-width=".1mm" d="m 104.87,39.93 a 4.5,4.5 0 1 0 9,0 4.5,4.5 0 1 0 -9,0" vector-effect="non-scaling-stroke"/><path id="path44" fill="#fff" stroke="#000" stroke-width=".1mm" d="m 85.82,36.75 a 4.5,4.5 0 1 0 9,0 4.5,4.5 0 1 0 -9,0" vector-effect="non-scaling-stroke"/><path id="path46" fill="#fff" stroke="#000" stroke-width=".1mm" d="m 10.77,56.49 a 3.6,3.6 0 1 0 7.2,0 3.6,3.6 0 1 0 -7.2,0" vector-effect="non-scaling-stroke"/><path id="path52" fill="#fff" stroke="#000" stroke-width=".1mm" d="m 45.33,47.09 a 1.5,1.5 0 0 1 1.5,-1.5 h 25.8 a 1.5,1.5 0 0 1 1.5,1.5 v 25.54 a 1.5,1.5 0 0 1 -1.5,1.5 h -25.8 a 1.5,1.5 0 0 1 -1.5,-1.5 V 47.09" vector-effect="non-scaling-stroke"/><path id="path54" fill="#fff" stroke="#000" stroke-width=".1mm" d="m 22.38,97.16 a 8.5,8.5 0 1 0 17,0 8.5,8.5 0 1 0 -17,0" vector-effect="non-scaling-stroke"/><path id="path56" fill="#fff" stroke="#000" stroke-width=".1mm" d="m 45.95,90.44 a 1,1 0 0 1 1,-1 h 6 a 1,1 0 0 1 1,1 v 13.5 a 1,1 0 0 1 -1,1 h -6 a 1,1 0 0 1 -1,-1 v -13.5" vector-effect="non-scaling-stroke"/><path id="path58" fill="#fff" stroke="#000" stroke-width=".1mm" d="m 61.96,91.345 a 1,1 0 0 1 1,-1 h 10.7 a 1,1 0 0 1 1,1 v 11.71 a 1,1 0 0 1 -1,1 h -10.7 a 1,1 0 0 1 -1,-1 v -11.71" vector-effect="non-scaling-stroke"/><path id="path60" fill="#fff" stroke="#000" stroke-width=".1mm" d="m 82.7,97.16 a 8.5,8.5 0 1 0 17,0 8.5,8.5 0 1 0 -17,0" vector-effect="non-scaling-stroke"/><path id="path62" fill="#fff" stroke="#000" stroke-width=".1mm" d="m 81.735,112.358 a 3.125,3.125 0 1 0 6.25,0 3.125,3.125 0 1 0 -6.25,0" vector-effect="non-scaling-stroke"/><path id="path64" fill="#fff" stroke="#000" stroke-width=".1mm" d="m 91.265,112.358 a 3.125,3.125 0 1 0 6.25,0 3.125,3.125 0 1 0 -6.25,0" vector-effect="non-scaling-stroke"/><path id="path66" fill="#fff" stroke="#000" stroke-width=".1mm" d="m 72.205,112.358 a 3.125,3.125 0 1 0 6.25,0 3.125,3.125 0 1 0 -6.25,0" vector-effect="non-scaling-stroke"/><path id="path68" fill="#fff" stroke="#000" stroke-width=".1mm" d="m 62.675,112.358 a 3.125,3.125 0 1 0 6.25,0 3.125,3.125 0 1 0 -6.25,0" vector-effect="non-scaling-stroke"/><path id="path70" fill="#fff" stroke="#000" stroke-width=".1mm" d="m 53.145,112.358 a 3.125,3.125 0 1 0 6.25,0 3.125,3.125 0 1 0 -6.25,0" vector-effect="non-scaling-stroke"/><path id="path72" fill="#fff" stroke="#000" stroke-width=".1mm" d="m 43.615,112.358 a 3.125,3.125 0 1 0 6.25,0 3.125,3.125 0 1 0 -6.25,0" vector-effect="non-scaling-stroke"/><path id="path74" fill="#fff" stroke="#000" stroke-width=".1mm" d="m 34.185,112.358 a 3.125,3.125 0 1 0 6.25,0 3.125,3.125 0 1 0 -6.25,0" vector-effect="non-scaling-stroke"/><path id="path76" fill="#fff" stroke="#000" stroke-width=".1mm" d="m 24.555,112.358 a 3.125,3.125 0 1 0 6.25,0 3.125,3.125 0 1 0 -6.25,0" vector-effect="non-scaling-stroke"/><path id="path78" fill="#fff" stroke="#000" stroke-width=".1mm" d="m 81.73,81.828 a 3.125,3.125 0 1 0 6.25,0 3.125,3.125 0 1 0 -6.25,0" vector-effect="non-scaling-stroke"/><path id="path80" fill="#fff" stroke="#000" stroke-width=".1mm" d="m 91.26,81.828 a 3.125,3.125 0 1 0 6.25,0 3.125,3.125 0 1 0 -6.25,0" vector-effect="non-scaling-stroke"/><path id="path82" fill="#fff" stroke="#000" stroke-width=".1mm" d="m 72.2,81.828 a 3.125,3.125 0 1 0 6.25,0 3.125,3.125 0 1 0 -6.25,0" vector-effect="non-scaling-stroke"/><path id="path84" fill="#fff" stroke="#000" stroke-width=".1mm" d="m 62.67,81.828 a 3.125,3.125 0 1 0 6.25,0 3.125,3.125 0 1 0 -6.25,0" vector-effect="non-scaling-stroke"/><path id="path86" fill="#fff" stroke="#000" stroke-width=".1mm" d="m 53.14,81.828 a 3.125,3.125 0 1 0 6.25,0 3.125,3.125 0 1 0 -6.25,0" vector-effect="non-scaling-stroke"/><path id="path88" fill="#fff" stroke="#000" stroke-width=".1mm" d="m 43.61,81.828 a 3.125,3.125 0 1 0 6.25,0 3.125,3.125 0 1 0 -6.25,0" vector-effect="non-scaling-stroke"/><path id="path90" fill="#fff" stroke="#000" stroke-width=".1mm" d="m 34.18,81.828 a 3.125,3.125 0 1 0 6.25,0 3.125,3.125 0 1 0 -6.25,0" vector-effect="non-scaling-stroke"/><path id="path92" fill="#fff" stroke="#000" stroke-width=".1mm" d="m 24.55,81.828 a 3.125,3.125 0 1 0 6.25,0 3.125,3.125 0 1 0 -6.25,0" vector-effect="non-scaling-stroke"/><path id="path94" fill="#fff" stroke="#000" stroke-width=".1mm" d="m 106.4,108.37 a 4.75,4.75 0 1 0 9.5,0 4.75,4.75 0 1 0 -9.5,0" vector-effect="non-scaling-stroke"/><path id="path96" fill="#fff" stroke="#000" stroke-width=".1mm" d="m 106.4,91.86 a 4.75,4.75 0 1 0 9.5,0 4.75,4.75 0 1 0 -9.5,0" vector-effect="non-scaling-stroke"/><path id="path98" fill="#fff" stroke="#000" stroke-width=".1mm" d="m 106.4,75.35 a 4.75,4.75 0 1 0 9.5,0 4.75,4.75 0 1 0 -9.5,0" vector-effect="non-scaling-stroke"/><path id="path100" fill="#fff" stroke="#000" stroke-width=".1mm" d="m 106.4,58.84 a 4.75,4.75 0 1 0 9.5,0 4.75,4.75 0 1 0 -9.5,0" vector-effect="non-scaling-stroke"/><path id="path102" fill="#fff" stroke="#000" stroke-width=".1mm" d="m 4.8,108.37 a 4.75,4.75 0 1 0 9.5,0 4.75,4.75 0 1 0 -9.5,0" vector-effect="non-scaling-stroke" style="mix-blend-mode:normal;fill:#fff;fill-opacity:1"/><path id="path104" fill="#fff" stroke="#000" stroke-width=".1mm" d="m 4.8,91.86 a 4.75,4.75 0 1 0 9.5,0 4.75,4.75 0 1 0 -9.5,0" vector-effect="non-scaling-stroke"/><path id="path106" fill="#fff" stroke="#000" stroke-width=".1mm" d="m 4.8,75.35 a 4.75,4.75 0 1 0 9.5,0 4.75,4.75 0 1 0 -9.5,0" vector-effect="non-scaling-stroke"/><path id="path108" fill="#fff" stroke="#000" stroke-width=".1mm" d="m 84.04,69.878 a 0.5,0.5 0 0 1 0.5,-0.5 h 13 a 0.5,0.5 0 0 1 0.5,0.5 v 3 a 0.5,0.5 0 0 1 -0.5,0.5 h -13 a 0.5,0.5 0 0 1 -0.5,-0.5 v -3" vector-effect="non-scaling-stroke"/></g><path id="path110" fill="none" stroke="#000" stroke-width=".1mm" d="m 0,126.9 a 1.6,1.6 0 0 0 1.6,1.6 v 0 h 118.72 a 1.6,1.6 0 0 0 1.6,-1.6 v 0 V 1.6 A 1.6,1.6 0 0 0 120.32,0 V 0 H 1.6 A 1.6,1.6 0 0 0 0,1.6 v 0 125.3" vector-effect="non-scaling-stroke"/><path id="path112" fill="none" stroke="red" stroke-width=".1mm" d="M -0.713,0 H 0.713 M 0,-0.713 v 1.426" vector-effect="non-scaling-stroke"/><path id="path114" fill="none" stroke="red" stroke-width=".1mm" d="M 6.737,3 H 8.163 M 7.45,2.287 v 1.426" vector-effect="non-scaling-stroke"/><path id="path116" fill="none" stroke="red" stroke-width=".1mm" d="M 6.737,125.5 H 8.163 M 7.45,124.787 v 1.426" vector-effect="non-scaling-stroke"/><path id="path118" fill="none" stroke="red" stroke-width=".1mm" d="m 113.757,3 h 1.426 M 114.47,2.287 v 1.426" vector-effect="non-scaling-stroke"/><path id="path120" fill="none" stroke="red" stroke-width=".1mm" d="m 113.757,125.5 h 1.426 m -0.713,-0.713 v 1.426" vector-effect="non-scaling-stroke"/><path id="path122" fill="none" stroke="red" stroke-width=".1mm" d="m 13.657,17.92 h 1.426 M 14.37,17.207 v 1.426" vector-effect="non-scaling-stroke"/><path id="path124" fill="none" stroke="red" stroke-width=".1mm" d="m 61.157,17.92 h 1.426 M 61.87,17.207 v 1.426" vector-effect="non-scaling-stroke"/><path id="path126" fill="none" stroke="red" stroke-width=".1mm" d="m 108.657,17.92 h 1.426 m -0.713,-0.713 v 1.426" vector-effect="non-scaling-stroke"/><path id="path128" fill="none" stroke="red" stroke-width=".1mm" d="m 32.457,36.75 h 1.426 M 33.17,36.037 v 1.426" vector-effect="non-scaling-stroke"/><path id="path130" fill="none" stroke="red" stroke-width=".1mm" d="m 108.657,39.93 h 1.426 m -0.713,-0.713 v 1.426" vector-effect="non-scaling-stroke"/><path id="path132" fill="none" stroke="red" stroke-width=".1mm" d="m 89.607,36.75 h 1.426 M 90.32,36.037 v 1.426" vector-effect="non-scaling-stroke"/><path id="path134" fill="none" stroke="red" stroke-width=".1mm" d="m 13.657,56.49 h 1.426 M 14.37,55.777 v 1.426" vector-effect="non-scaling-stroke"/><path id="path136" fill="none" stroke="red" stroke-width=".1mm" d="m 59.017,59.86 h 1.426 M 59.73,59.147 v 1.426" vector-effect="non-scaling-stroke"/><path id="path138" fill="none" stroke="red" stroke-width=".1mm" d="m 30.167,97.16 h 1.426 M 30.88,96.447 v 1.426" vector-effect="non-scaling-stroke"/><path id="path140" fill="none" stroke="red" stroke-width=".1mm" d="m 49.237,97.19 h 1.426 M 49.95,96.477 v 1.426" vector-effect="non-scaling-stroke"/><path id="path142" fill="none" stroke="red" stroke-width=".1mm" d="m 67.597,97.2 h 1.426 M 68.31,96.487 v 1.426" vector-effect="non-scaling-stroke"/><path id="path144" fill="none" stroke="red" stroke-width=".1mm" d="m 90.487,97.16 h 1.426 M 91.2,96.447 v 1.426" vector-effect="non-scaling-stroke"/><path id="path146" fill="none" stroke="#00d000" stroke-width=".1mm" d="m 84.147,112.358 h 1.426 m -0.713,-0.713 v 1.426" vector-effect="non-scaling-stroke"/><path id="path148" fill="none" stroke="#00d000" stroke-width=".1mm" d="m 93.677,112.358 h 1.426 m -0.713,-0.713 v 1.426" vector-effect="non-scaling-stroke"/><path id="path150" fill="none" stroke="#00d000" stroke-width=".1mm" d="m 74.617,112.358 h 1.426 m -0.713,-0.713 v 1.426" vector-effect="non-scaling-stroke"/><path id="path152" fill="none" stroke="#00d000" stroke-width=".1mm" d="m 65.087,112.358 h 1.426 M 65.8,111.645 v 1.426" vector-effect="non-scaling-stroke"/><path id="path154" fill="none" stroke="#00d000" stroke-width=".1mm" d="m 55.557,112.358 h 1.426 m -0.713,-0.713 v 1.426" vector-effect="non-scaling-stroke"/><path id="path156" fill="none" stroke="#00d000" stroke-width=".1mm" d="m 46.027,112.358 h 1.426 m -0.713,-0.713 v 1.426" vector-effect="non-scaling-stroke"/><path id="path158" fill="none" stroke="#00d000" stroke-width=".1mm" d="m 36.597,112.358 h 1.426 m -0.713,-0.713 v 1.426" vector-effect="non-scaling-stroke"/><path id="path160" fill="none" stroke="#00d000" stroke-width=".1mm" d="m 26.967,112.358 h 1.426 m -0.713,-0.713 v 1.426" vector-effect="non-scaling-stroke"/><path id="path162" fill="none" stroke="red" stroke-width=".1mm" d="m 60.322,112.358 h 1.426 m -0.713,-0.713 v 1.426" vector-effect="non-scaling-stroke"/><path id="path164" fill="none" stroke="#00d000" stroke-width=".1mm" d="m 84.142,81.828 h 1.426 m -0.713,-0.713 v 1.426" vector-effect="non-scaling-stroke"/><path id="path166" fill="none" stroke="#00d000" stroke-width=".1mm" d="m 93.672,81.828 h 1.426 m -0.713,-0.713 v 1.426" vector-effect="non-scaling-stroke"/><path id="path168" fill="none" stroke="#00d000" stroke-width=".1mm" d="m 74.612,81.828 h 1.426 m -0.713,-0.713 v 1.426" vector-effect="non-scaling-stroke"/><path id="path170" fill="none" stroke="#00d000" stroke-width=".1mm" d="m 65.082,81.828 h 1.426 m -0.713,-0.713 v 1.426" vector-effect="non-scaling-stroke"/><path id="path172" fill="none" stroke="#00d000" stroke-width=".1mm" d="m 55.552,81.828 h 1.426 m -0.713,-0.713 v 1.426" vector-effect="non-scaling-stroke"/><path id="path174" fill="none" stroke="#00d000" stroke-width=".1mm" d="m 46.022,81.828 h 1.426 m -0.713,-0.713 v 1.426" vector-effect="non-scaling-stroke"/><path id="path176" fill="none" stroke="#00d000" stroke-width=".1mm" d="m 36.592,81.828 h 1.426 m -0.713,-0.713 v 1.426" vector-effect="non-scaling-stroke"/><path id="path178" fill="none" stroke="#00d000" stroke-width=".1mm" d="m 26.962,81.828 h 1.426 m -0.713,-0.713 v 1.426" vector-effect="non-scaling-stroke"/><path id="path180" fill="none" stroke="red" stroke-width=".1mm" d="m 60.317,81.828 h 1.426 M 61.03,81.115 v 1.426" vector-effect="non-scaling-stroke"/><path id="path182" fill="none" stroke="red" stroke-width=".1mm" d="m 110.437,108.37 h 1.426 m -0.713,-0.713 v 1.426" vector-effect="non-scaling-stroke"/><path id="path184" fill="none" stroke="red" stroke-width=".1mm" d="m 110.437,91.86 h 1.426 m -0.713,-0.713 v 1.426" vector-effect="non-scaling-stroke"/><path id="path186" fill="none" stroke="red" stroke-width=".1mm" d="m 110.437,75.35 h 1.426 m -0.713,-0.713 v 1.426" vector-effect="non-scaling-stroke"/><path id="path188" fill="none" stroke="red" stroke-width=".1mm" d="m 110.437,58.84 h 1.426 m -0.713,-0.713 v 1.426" vector-effect="non-scaling-stroke"/><path id="path190" fill="none" stroke="red" stroke-width=".1mm" d="m 8.837,108.37 h 1.426 M 9.55,107.657 v 1.426" vector-effect="non-scaling-stroke"/><path id="path192" fill="none" stroke="red" stroke-width=".1mm" d="m 8.837,91.86 h 1.426 M 9.55,91.147 v 1.426" vector-effect="non-scaling-stroke"/><path id="path194" fill="none" stroke="red" stroke-width=".1mm" d="m 8.837,75.35 h 1.426 M 9.55,74.637 v 1.426" vector-effect="non-scaling-stroke"/><path id="path196" fill="none" stroke="red" stroke-width=".1mm" d="m 90.327,71.378 h 1.426 M 91.04,70.665 v 1.426" vector-effect="non-scaling-stroke"/></g></svg>